<?xml version="1.0"?>
<!-- Created by MetaPost 1.9991 on 2017.01.29:2111 -->
<svg version="1.1" xmlns="http://www.w3.org/2000/svg" xmlns:xlink="http://www.w3.org/1999/xlink" width="174.222183" height="240.297150" viewBox="0 0 174.222183 240.297150">
<!-- Original BoundingBox: -35.109222 -84.262222 139.112961 156.034927 -->
  <path d="M3.875824 204.983017L170.127914 236.277176L149.462372 72.576157L9.913544 3.950119Z" style="fill: rgb(100.000000%,76.100159%,50.000000%);stroke: none;"></path>
  <path d="M3.875824 204.983017L170.127914 236.277176L149.462372 72.576157L9.913544 3.950119Z" style="stroke:rgb(0.000000%,0.000000%,0.000000%); stroke-width: 1.992523;stroke-linecap: round;stroke-linejoin: round;stroke-miterlimit: 10.000000;fill: none;"></path>
  <path d="M7.860870 204.983017C7.860870 203.926071,7.440933 202.912537,6.693619 202.165222C5.946304 201.417908,4.932770 200.997971,3.875824 200.997971C2.818878 200.997971,1.805344 201.417908,1.058029 202.165222C0.310715 202.912537,-0.109222 203.926071,-0.109222 204.983017C-0.109222 206.039963,0.310715 207.053497,1.058029 207.800812C1.805344 208.548126,2.818878 208.968063,3.875824 208.968063C4.932770 208.968063,5.946304 208.548126,6.693619 207.800812C7.440933 207.053497,7.860870 206.039963,7.860870 204.983017Z" style="fill: rgb(0.000000%,0.000000%,0.000000%);stroke: none;"></path>
  <path d="M174.112961 236.277176C174.112961 235.220230,173.693024 234.206696,172.945709 233.459381C172.198395 232.712067,171.184860 232.292130,170.127914 232.292130C169.070969 232.292130,168.057434 232.712067,167.310120 233.459381C166.562805 234.206696,166.142868 235.220230,166.142868 236.277176C166.142868 237.334122,166.562805 238.347656,167.310120 239.094971C168.057434 239.842285,169.070969 240.262222,170.127914 240.262222C171.184860 240.262222,172.198395 239.842285,172.945709 239.094971C173.693024 238.347656,174.112961 237.334122,174.112961 236.277176Z" style="fill: rgb(0.000000%,0.000000%,0.000000%);stroke: none;"></path>
  <path d="M153.447418 72.576157C153.447418 71.519211,153.027481 70.505676,152.280167 69.758362C151.532852 69.011047,150.519318 68.591110,149.462372 68.591110C148.405426 68.591110,147.391891 69.011047,146.644577 69.758362C145.897263 70.505676,145.477325 71.519211,145.477325 72.576157C145.477325 73.633102,145.897263 74.646637,146.644577 75.393951C147.391891 76.141266,148.405426 76.561203,149.462372 76.561203C150.519318 76.561203,151.532852 76.141266,152.280167 75.393951C153.027481 74.646637,153.447418 73.633102,153.447418 72.576157Z" style="fill: rgb(0.000000%,0.000000%,0.000000%);stroke: none;"></path>
  <path d="M13.898590 3.950119C13.898590 2.893173,13.478653 1.879639,12.731339 1.132324C11.984024 0.385010,10.970490 -0.034927,9.913544 -0.034927C8.856598 -0.034927,7.843063 0.385010,7.095749 1.132324C6.348434 1.879639,5.928497 2.893173,5.928497 3.950119C5.928497 5.007065,6.348434 6.020599,7.095749 6.767914C7.843063 7.515228,8.856598 7.935165,9.913544 7.935165C10.970490 7.935165,11.984024 7.515228,12.731339 6.767914C13.478653 6.020599,13.898590 5.007065,13.898590 3.950119Z" style="fill: rgb(0.000000%,0.000000%,0.000000%);stroke: none;"></path>
</svg>
