<?xml version="1.0"?>
<!-- Created by MetaPost 1.9991 on 2017.01.29:2113 -->
<svg version="1.1" xmlns="http://www.w3.org/2000/svg" xmlns:xlink="http://www.w3.org/1999/xlink" width="253.019440" height="245.570587" viewBox="0 0 253.019440 245.570587">
<!-- Original BoundingBox: -116.831909 -122.785294 136.187531 122.785294 -->
  <path d="M87.171280 240.800247L240.667984 211.461563L240.667984 32.538437L87.171280 3.199753Z" style="fill: rgb(100.000000%,76.100159%,50.000000%);stroke: none;"></path>
  <path d="M87.171280 240.800247L240.667984 211.461563L240.667984 32.538437L87.171280 3.199753Z" style="stroke:rgb(0.000000%,0.000000%,0.000000%); stroke-width: 1.992523;stroke-linecap: round;stroke-linejoin: round;stroke-miterlimit: 10.000000;fill: none;"></path>
  <path d="M87.171280 3.199753L3.153137 40.872910" style="stroke:rgb(0.000000%,0.000000%,0.000000%); stroke-width: 1.992523;stroke-linecap: round;stroke-linejoin: round;stroke-miterlimit: 10.000000;fill: none;"></path>
  <path d="M76.647995 129.516510L94.687790 111.476715" style="stroke:rgb(0.000000%,0.000000%,0.000000%); stroke-width: 1.992523;stroke-linecap: round;stroke-linejoin: round;stroke-miterlimit: 10.000000;fill: none;"></path>
  <path d="M79.654770 132.523285L97.694565 114.483490" style="stroke:rgb(0.000000%,0.000000%,0.000000%); stroke-width: 1.992523;stroke-linecap: round;stroke-linejoin: round;stroke-miterlimit: 10.000000;fill: none;"></path>
  <path d="M230.144699 129.516510L248.184494 111.476715" style="stroke:rgb(0.000000%,0.000000%,0.000000%); stroke-width: 1.992523;stroke-linecap: round;stroke-linejoin: round;stroke-miterlimit: 10.000000;fill: none;"></path>
  <path d="M233.151474 132.523285L251.191269 114.483490" style="stroke:rgb(0.000000%,0.000000%,0.000000%); stroke-width: 1.992523;stroke-linecap: round;stroke-linejoin: round;stroke-miterlimit: 10.000000;fill: none;"></path>
  <path d="M91.156326 240.800247C91.156326 239.743301,90.736389 238.729767,89.989075 237.982452C89.241760 237.235138,88.228226 236.815201,87.171280 236.815201C86.114334 236.815201,85.100800 237.235138,84.353485 237.982452C83.606171 238.729767,83.186234 239.743301,83.186234 240.800247C83.186234 241.857193,83.606171 242.870728,84.353485 243.618042C85.100800 244.365356,86.114334 244.785294,87.171280 244.785294C88.228226 244.785294,89.241760 244.365356,89.989075 243.618042C90.736389 242.870728,91.156326 241.857193,91.156326 240.800247Z" style="fill: rgb(0.000000%,0.000000%,0.000000%);stroke: none;"></path>
  <path d="M244.653030 211.461563C244.653030 210.404617,244.233093 209.391083,243.485779 208.643768C242.738464 207.896454,241.724930 207.476517,240.667984 207.476517C239.611038 207.476517,238.597504 207.896454,237.850189 208.643768C237.102875 209.391083,236.682938 210.404617,236.682938 211.461563C236.682938 212.518509,237.102875 213.532043,237.850189 214.279358C238.597504 215.026672,239.611038 215.446609,240.667984 215.446609C241.724930 215.446609,242.738464 215.026672,243.485779 214.279358C244.233093 213.532043,244.653030 212.518509,244.653030 211.461563Z" style="fill: rgb(0.000000%,0.000000%,0.000000%);stroke: none;"></path>
  <path d="M244.653030 32.538437C244.653030 31.481491,244.233093 30.467957,243.485779 29.720642C242.738464 28.973328,241.724930 28.553391,240.667984 28.553391C239.611038 28.553391,238.597504 28.973328,237.850189 29.720642C237.102875 30.467957,236.682938 31.481491,236.682938 32.538437C236.682938 33.595383,237.102875 34.608917,237.850189 35.356232C238.597504 36.103546,239.611038 36.523483,240.667984 36.523483C241.724930 36.523483,242.738464 36.103546,243.485779 35.356232C244.233093 34.608917,244.653030 33.595383,244.653030 32.538437Z" style="fill: rgb(0.000000%,0.000000%,0.000000%);stroke: none;"></path>
  <path d="M91.156326 3.199753C91.156326 2.142807,90.736389 1.129272,89.989075 0.381958C89.241760 -0.365356,88.228226 -0.785294,87.171280 -0.785294C86.114334 -0.785294,85.100800 -0.365356,84.353485 0.381958C83.606171 1.129272,83.186234 2.142807,83.186234 3.199753C83.186234 4.256699,83.606171 5.270233,84.353485 6.017548C85.100800 6.764862,86.114334 7.184799,87.171280 7.184799C88.228226 7.184799,89.241760 6.764862,89.989075 6.017548C90.736389 5.270233,91.156326 4.256699,91.156326 3.199753Z" style="fill: rgb(0.000000%,0.000000%,0.000000%);stroke: none;"></path>
  <path d="M7.138184 40.872910C7.138184 39.815964,6.718246 38.802429,5.970932 38.055115C5.223618 37.307800,4.210083 36.887863,3.153137 36.887863C2.096191 36.887863,1.082657 37.307800,0.335342 38.055115C-0.411972 38.802429,-0.831909 39.815964,-0.831909 40.872910C-0.831909 41.929855,-0.411972 42.943390,0.335342 43.690704C1.082657 44.438019,2.096191 44.857956,3.153137 44.857956C4.210083 44.857956,5.223618 44.438019,5.970932 43.690704C6.718246 42.943390,7.138184 41.929855,7.138184 40.872910Z" style="fill: rgb(0.000000%,0.000000%,0.000000%);stroke: none;"></path>
</svg>
