<?xml version="1.0"?>
<!-- Created by MetaPost 1.9991 on 2017.01.29:2112 -->
<svg version="1.1" xmlns="http://www.w3.org/2000/svg" xmlns:xlink="http://www.w3.org/1999/xlink" width="265.639221" height="249.311554" viewBox="0 0 265.639221 249.311554">
<!-- Original BoundingBox: -126.526260 -93.276627 139.112961 156.034927 -->
  <path d="M94.875824 204.983017L261.127914 236.277176L240.462372 72.576157L100.913544 3.950119Z" style="fill: rgb(100.000000%,76.100159%,50.000000%);stroke: none;"></path>
  <path d="M94.875824 204.983017L261.127914 236.277176L240.462372 72.576157L100.913544 3.950119Z" style="stroke:rgb(0.000000%,0.000000%,0.000000%); stroke-width: 1.992523;stroke-linecap: round;stroke-linejoin: round;stroke-miterlimit: 10.000000;fill: none;"></path>
  <path d="M94.875824 204.983017L3.458786 245.291580" style="stroke:rgb(0.000000%,0.000000%,0.000000%); stroke-width: 1.992523;stroke-linecap: round;stroke-linejoin: round;stroke-miterlimit: 10.000000;fill: none;"></path>
  <path d="M100.913544 3.950119L20.720718 93.496017" style="stroke:rgb(0.000000%,0.000000%,0.000000%); stroke-width: 1.992523;stroke-linecap: round;stroke-linejoin: round;stroke-miterlimit: 10.000000;fill: none;"></path>
  <path d="M98.860870 204.983017C98.860870 203.926071,98.440933 202.912537,97.693619 202.165222C96.946304 201.417908,95.932770 200.997971,94.875824 200.997971C93.818878 200.997971,92.805344 201.417908,92.058029 202.165222C91.310715 202.912537,90.890778 203.926071,90.890778 204.983017C90.890778 206.039963,91.310715 207.053497,92.058029 207.800812C92.805344 208.548126,93.818878 208.968063,94.875824 208.968063C95.932770 208.968063,96.946304 208.548126,97.693619 207.800812C98.440933 207.053497,98.860870 206.039963,98.860870 204.983017Z" style="fill: rgb(0.000000%,0.000000%,0.000000%);stroke: none;"></path>
  <path d="M265.112961 236.277176C265.112961 235.220230,264.693024 234.206696,263.945709 233.459381C263.198395 232.712067,262.184860 232.292130,261.127914 232.292130C260.070969 232.292130,259.057434 232.712067,258.310120 233.459381C257.562805 234.206696,257.142868 235.220230,257.142868 236.277176C257.142868 237.334122,257.562805 238.347656,258.310120 239.094971C259.057434 239.842285,260.070969 240.262222,261.127914 240.262222C262.184860 240.262222,263.198395 239.842285,263.945709 239.094971C264.693024 238.347656,265.112961 237.334122,265.112961 236.277176Z" style="fill: rgb(0.000000%,0.000000%,0.000000%);stroke: none;"></path>
  <path d="M244.447418 72.576157C244.447418 71.519211,244.027481 70.505676,243.280167 69.758362C242.532852 69.011047,241.519318 68.591110,240.462372 68.591110C239.405426 68.591110,238.391891 69.011047,237.644577 69.758362C236.897263 70.505676,236.477325 71.519211,236.477325 72.576157C236.477325 73.633102,236.897263 74.646637,237.644577 75.393951C238.391891 76.141266,239.405426 76.561203,240.462372 76.561203C241.519318 76.561203,242.532852 76.141266,243.280167 75.393951C244.027481 74.646637,244.447418 73.633102,244.447418 72.576157Z" style="fill: rgb(0.000000%,0.000000%,0.000000%);stroke: none;"></path>
  <path d="M104.898590 3.950119C104.898590 2.893173,104.478653 1.879639,103.731339 1.132324C102.984024 0.385010,101.970490 -0.034927,100.913544 -0.034927C99.856598 -0.034927,98.843063 0.385010,98.095749 1.132324C97.348434 1.879639,96.928497 2.893173,96.928497 3.950119C96.928497 5.007065,97.348434 6.020599,98.095749 6.767914C98.843063 7.515228,99.856598 7.935165,100.913544 7.935165C101.970490 7.935165,102.984024 7.515228,103.731339 6.767914C104.478653 6.020599,104.898590 5.007065,104.898590 3.950119Z" style="fill: rgb(0.000000%,0.000000%,0.000000%);stroke: none;"></path>
  <path d="M24.705765 93.496017C24.705765 92.439072,24.285828 91.425537,23.538513 90.678223C22.791199 89.930908,21.777664 89.510971,20.720718 89.510971C19.663773 89.510971,18.650238 89.930908,17.902924 90.678223C17.155609 91.425537,16.735672 92.439072,16.735672 93.496017C16.735672 94.552963,17.155609 95.566498,17.902924 96.313812C18.650238 97.061127,19.663773 97.481064,20.720718 97.481064C21.777664 97.481064,22.791199 97.061127,23.538513 96.313812C24.285828 95.566498,24.705765 94.552963,24.705765 93.496017Z" style="fill: rgb(0.000000%,0.000000%,0.000000%);stroke: none;"></path>
  <path d="M7.443832 245.291580C7.443832 244.234634,7.023895 243.221100,6.276581 242.473785C5.529266 241.726471,4.515732 241.306534,3.458786 241.306534C2.401840 241.306534,1.388306 241.726471,0.640991 242.473785C-0.106323 243.221100,-0.526260 244.234634,-0.526260 245.291580C-0.526260 246.348526,-0.106323 247.362061,0.640991 248.109375C1.388306 248.856689,2.401840 249.276627,3.458786 249.276627C4.515732 249.276627,5.529266 248.856689,6.276581 248.109375C7.023895 247.362061,7.443832 246.348526,7.443832 245.291580Z" style="fill: rgb(0.000000%,0.000000%,0.000000%);stroke: none;"></path>
</svg>
